# MagicaVoxel @ Ephtracy

# group
o 

# material
mtllib Enemy 1.mtl
usemtl palette

# normals
vn -1 0 0
vn 1 0 0
vn 0 0 1
vn 0 0 -1
vn 0 -1 0
vn 0 1 0

# texcoords
vt 0.0214844 0.5
vt 0.806641 0.5
vt 0.810547 0.5
vt 0.908203 0.5
vt 0.912109 0.5
vt 0.955078 0.5
vt 0.994141 0.5

# verts
v 0 2.1 -0.2
v 0 2.1 -0.4
v 0 2.2 -0.1
v 0 2.2 -0.2
v 0 2.2 -0.4
v 0 2.2 -0.5
v 0 2.8 -0.1
v 0 2.8 -0.2
v 0 2.8 -0.4
v 0 2.8 -0.5
v 0 2.9 -0.2
v 0 2.9 -0.4
v 0.1 2.1 -0.1
v 0.1 2.1 -0.2
v 0.1 2.1 -0.4
v 0.1 2.1 -0.5
v 0.1 2.2 -0.1
v 0.1 2.2 -0.2
v 0.1 2.2 -0.4
v 0.1 2.2 -0.5
v 0.1 2.3 0
v 0.1 2.3 -0.1
v 0.1 2.3 -0.5
v 0.1 2.3 -0.6
v 0.1 2.7 0
v 0.1 2.7 -0.1
v 0.1 2.7 -0.5
v 0.1 2.7 -0.6
v 0.1 2.8 -0.1
v 0.1 2.8 -0.2
v 0.1 2.8 -0.4
v 0.1 2.8 -0.5
v 0.1 2.9 -0.1
v 0.1 2.9 -0.2
v 0.1 2.9 -0.4
v 0.1 2.9 -0.5
v 0.2 2.2 0
v 0.2 2.2 -0.1
v 0.2 2.2 -0.5
v 0.2 2.2 -0.6
v 0.2 2.3 0
v 0.2 2.3 -0.1
v 0.2 2.3 -0.5
v 0.2 2.3 -0.6
v 0.2 2.7 0
v 0.2 2.7 -0.1
v 0.2 2.7 -0.5
v 0.2 2.7 -0.6
v 0.2 2.8 0
v 0.2 2.8 -0.1
v 0.2 2.8 -0.5
v 0.2 2.8 -0.6
v 0.2 2.9 -0.2
v 0.2 2.9 -0.4
v 0.2 3 -0.2
v 0.2 3 -0.4
v 0.3 2 -0.1
v 0.3 2 -0.2
v 0.3 2 -0.4
v 0.3 2 -0.5
v 0.3 2.1 0
v 0.3 2.1 -0.1
v 0.3 2.1 -0.2
v 0.3 2.1 -0.4
v 0.3 2.1 -0.5
v 0.3 2.1 -0.6
v 0.3 2.2 0
v 0.3 2.2 -0.1
v 0.3 2.2 -0.5
v 0.3 2.2 -0.6
v 0.3 2.8 0
v 0.3 2.8 -0.1
v 0.3 2.8 -0.5
v 0.3 2.8 -0.6
v 0.3 2.9 0
v 0.3 2.9 -0.1
v 0.3 2.9 -0.2
v 0.3 2.9 -0.4
v 0.3 2.9 -0.5
v 0.3 2.9 -0.6
v 0.3 3 -0.1
v 0.3 3 -0.2
v 0.3 3 -0.4
v 0.3 3 -0.5
v 0.5 2.1 -0.2
v 0.5 2.1 -0.4
v 0.5 2.2 -0.2
v 0.5 2.2 -0.4
v 0.3 2.1 -0.2
v 0.3 2.1 -0.4
v 0.3 2.2 -0.2
v 0.3 2.2 -0.4
v 0.4 2.7 -0.1
v 0.4 2.7 -0.2
v 0.4 2.7 -0.4
v 0.4 2.7 -0.5
v 0.4 2.8 -0.1
v 0.4 2.8 -0.2
v 0.4 2.8 -0.4
v 0.4 2.8 -0.5
v 0.5 2 -0.1
v 0.5 2 -0.2
v 0.5 2 -0.4
v 0.5 2 -0.5
v 0.5 2.1 0
v 0.5 2.1 -0.1
v 0.5 2.1 -0.2
v 0.5 2.1 -0.4
v 0.5 2.1 -0.5
v 0.5 2.1 -0.6
v 0.5 2.5 -0.1
v 0.5 2.5 -0.5
v 0.5 2.6 0
v 0.5 2.6 -0.1
v 0.5 2.6 -0.5
v 0.5 2.6 -0.6
v 0.5 2.7 -0.1
v 0.5 2.7 -0.2
v 0.5 2.7 -0.4
v 0.5 2.7 -0.5
v 0.5 2.8 -0.1
v 0.5 2.8 -0.2
v 0.5 2.8 -0.4
v 0.5 2.8 -0.5
v 0.5 2.9 -0.1
v 0.5 2.9 -0.5
v 0.6 2.1 -0.1
v 0.6 2.1 -0.5
v 0.6 2.5 -0.1
v 0.6 2.5 -0.5
v 0.6 2.6 0
v 0.6 2.6 -0.1
v 0.6 2.6 -0.5
v 0.6 2.6 -0.6
v 0.6 2.9 0
v 0.6 2.9 -0.1
v 0.6 2.9 -0.5
v 0.6 2.9 -0.6
v 0.6 3 -0.1
v 0.6 3 -0.5
v 0.1 2.3 0
v 0.1 2.7 0
v 0.2 2.2 0
v 0.2 2.3 0
v 0.2 2.7 0
v 0.2 2.8 0
v 0.3 2.1 0
v 0.3 2.2 0
v 0.3 2.8 0
v 0.3 2.9 0
v 0.4 2.7 0
v 0.4 2.9 0
v 0.5 2.1 0
v 0.5 2.6 0
v 0.5 2.7 0
v 0.6 2.6 0
v 0.6 2.9 0
v 0 2.2 -0.1
v 0 2.8 -0.1
v 0.1 2.1 -0.1
v 0.1 2.2 -0.1
v 0.1 2.3 -0.1
v 0.1 2.7 -0.1
v 0.1 2.8 -0.1
v 0.1 2.9 -0.1
v 0.2 2.2 -0.1
v 0.2 2.3 -0.1
v 0.2 2.7 -0.1
v 0.2 2.8 -0.1
v 0.3 2 -0.1
v 0.3 2.1 -0.1
v 0.3 2.2 -0.1
v 0.3 2.8 -0.1
v 0.3 2.9 -0.1
v 0.3 3 -0.1
v 0.4 2.9 -0.1
v 0.4 3 -0.1
v 0.5 2 -0.1
v 0.5 2.1 -0.1
v 0.5 2.5 -0.1
v 0.5 2.6 -0.1
v 0.6 2.1 -0.1
v 0.6 2.5 -0.1
v 0.6 2.6 -0.1
v 0.6 2.9 -0.1
v 0.6 3 -0.1
v 0 2.1 -0.2
v 0 2.2 -0.2
v 0 2.8 -0.2
v 0 2.9 -0.2
v 0.1 2.1 -0.2
v 0.1 2.2 -0.2
v 0.1 2.8 -0.2
v 0.1 2.9 -0.2
v 0.2 2.9 -0.2
v 0.2 3 -0.2
v 0.3 2.9 -0.2
v 0.3 3 -0.2
v 0.4 2.7 -0.2
v 0.4 2.8 -0.2
v 0.5 2.7 -0.2
v 0.5 2.8 -0.2
v 0.3 2 -0.4
v 0.3 2.1 -0.4
v 0.3 2.2 -0.4
v 0.5 2 -0.4
v 0.5 2.1 -0.4
v 0.5 2.2 -0.4
v 0.4 2.7 -0.5
v 0.4 2.8 -0.5
v 0.5 2.6 -0.5
v 0.5 2.7 -0.5
v 0.5 2.8 -0.5
v 0.5 2.9 -0.5
v 0.6 2.6 -0.5
v 0.6 2.9 -0.5
v 0.4 2.7 -0.1
v 0.4 2.8 -0.1
v 0.5 2.6 -0.1
v 0.5 2.7 -0.1
v 0.5 2.8 -0.1
v 0.5 2.9 -0.1
v 0.6 2.6 -0.1
v 0.6 2.9 -0.1
v 0.3 2 -0.2
v 0.3 2.1 -0.2
v 0.3 2.2 -0.2
v 0.5 2 -0.2
v 0.5 2.1 -0.2
v 0.5 2.2 -0.2
v 0 2.1 -0.4
v 0 2.2 -0.4
v 0 2.8 -0.4
v 0 2.9 -0.4
v 0.1 2.1 -0.4
v 0.1 2.2 -0.4
v 0.1 2.8 -0.4
v 0.1 2.9 -0.4
v 0.2 2.9 -0.4
v 0.2 3 -0.4
v 0.3 2.9 -0.4
v 0.3 3 -0.4
v 0.4 2.7 -0.4
v 0.4 2.8 -0.4
v 0.5 2.7 -0.4
v 0.5 2.8 -0.4
v 0 2.2 -0.5
v 0 2.8 -0.5
v 0.1 2.1 -0.5
v 0.1 2.2 -0.5
v 0.1 2.3 -0.5
v 0.1 2.7 -0.5
v 0.1 2.8 -0.5
v 0.1 2.9 -0.5
v 0.2 2.2 -0.5
v 0.2 2.3 -0.5
v 0.2 2.7 -0.5
v 0.2 2.8 -0.5
v 0.3 2 -0.5
v 0.3 2.1 -0.5
v 0.3 2.2 -0.5
v 0.3 2.8 -0.5
v 0.3 2.9 -0.5
v 0.3 3 -0.5
v 0.4 2.9 -0.5
v 0.4 3 -0.5
v 0.5 2 -0.5
v 0.5 2.1 -0.5
v 0.5 2.5 -0.5
v 0.5 2.6 -0.5
v 0.6 2.1 -0.5
v 0.6 2.5 -0.5
v 0.6 2.6 -0.5
v 0.6 2.9 -0.5
v 0.6 3 -0.5
v 0.1 2.3 -0.6
v 0.1 2.7 -0.6
v 0.2 2.2 -0.6
v 0.2 2.3 -0.6
v 0.2 2.7 -0.6
v 0.2 2.8 -0.6
v 0.3 2.1 -0.6
v 0.3 2.2 -0.6
v 0.3 2.8 -0.6
v 0.3 2.9 -0.6
v 0.4 2.7 -0.6
v 0.4 2.9 -0.6
v 0.5 2.1 -0.6
v 0.5 2.6 -0.6
v 0.5 2.7 -0.6
v 0.6 2.6 -0.6
v 0.6 2.9 -0.6
v 0.3 2 -0.1
v 0.5 2 -0.1
v 0.3 2 -0.2
v 0.5 2 -0.2
v 0.3 2 -0.4
v 0.5 2 -0.4
v 0.3 2 -0.5
v 0.5 2 -0.5
v 0.3 2.1 0
v 0.5 2.1 0
v 0.1 2.1 -0.1
v 0.3 2.1 -0.1
v 0.5 2.1 -0.1
v 0.6 2.1 -0.1
v 0 2.1 -0.2
v 0.1 2.1 -0.2
v 0.3 2.1 -0.2
v 0.5 2.1 -0.2
v 0 2.1 -0.4
v 0.1 2.1 -0.4
v 0.3 2.1 -0.4
v 0.5 2.1 -0.4
v 0.1 2.1 -0.5
v 0.3 2.1 -0.5
v 0.5 2.1 -0.5
v 0.6 2.1 -0.5
v 0.3 2.1 -0.6
v 0.5 2.1 -0.6
v 0.2 2.2 0
v 0.3 2.2 0
v 0 2.2 -0.1
v 0.1 2.2 -0.1
v 0.2 2.2 -0.1
v 0.3 2.2 -0.1
v 0 2.2 -0.2
v 0.1 2.2 -0.2
v 0.3 2.2 -0.2
v 0.5 2.2 -0.2
v 0 2.2 -0.4
v 0.1 2.2 -0.4
v 0.3 2.2 -0.4
v 0.5 2.2 -0.4
v 0 2.2 -0.5
v 0.1 2.2 -0.5
v 0.2 2.2 -0.5
v 0.3 2.2 -0.5
v 0.2 2.2 -0.6
v 0.3 2.2 -0.6
v 0.1 2.3 0
v 0.2 2.3 0
v 0.1 2.3 -0.1
v 0.2 2.3 -0.1
v 0.1 2.3 -0.5
v 0.2 2.3 -0.5
v 0.1 2.3 -0.6
v 0.2 2.3 -0.6
v 0.5 2.6 0
v 0.6 2.6 0
v 0.5 2.6 -0.1
v 0.6 2.6 -0.1
v 0.5 2.6 -0.5
v 0.6 2.6 -0.5
v 0.5 2.6 -0.6
v 0.6 2.6 -0.6
v 0.4 2.8 -0.1
v 0.5 2.8 -0.1
v 0.4 2.8 -0.2
v 0.5 2.8 -0.2
v 0.4 2.8 -0.4
v 0.5 2.8 -0.4
v 0.4 2.8 -0.5
v 0.5 2.8 -0.5
v 0.5 2.9 -0.1
v 0.6 2.9 -0.1
v 0.5 2.9 -0.5
v 0.6 2.9 -0.5
v 0.5 2.6 -0.1
v 0.6 2.6 -0.1
v 0.5 2.6 -0.5
v 0.6 2.6 -0.5
v 0.1 2.7 0
v 0.2 2.7 0
v 0.1 2.7 -0.1
v 0.2 2.7 -0.1
v 0.4 2.7 -0.1
v 0.5 2.7 -0.1
v 0.4 2.7 -0.2
v 0.5 2.7 -0.2
v 0.4 2.7 -0.4
v 0.5 2.7 -0.4
v 0.1 2.7 -0.5
v 0.2 2.7 -0.5
v 0.4 2.7 -0.5
v 0.5 2.7 -0.5
v 0.1 2.7 -0.6
v 0.2 2.7 -0.6
v 0.2 2.8 0
v 0.3 2.8 0
v 0 2.8 -0.1
v 0.1 2.8 -0.1
v 0.2 2.8 -0.1
v 0.3 2.8 -0.1
v 0 2.8 -0.2
v 0.1 2.8 -0.2
v 0 2.8 -0.4
v 0.1 2.8 -0.4
v 0 2.8 -0.5
v 0.1 2.8 -0.5
v 0.2 2.8 -0.5
v 0.3 2.8 -0.5
v 0.2 2.8 -0.6
v 0.3 2.8 -0.6
v 0.3 2.9 0
v 0.4 2.9 0
v 0.6 2.9 0
v 0.1 2.9 -0.1
v 0.3 2.9 -0.1
v 0.4 2.9 -0.1
v 0.6 2.9 -0.1
v 0 2.9 -0.2
v 0.1 2.9 -0.2
v 0.2 2.9 -0.2
v 0.3 2.9 -0.2
v 0 2.9 -0.4
v 0.1 2.9 -0.4
v 0.2 2.9 -0.4
v 0.3 2.9 -0.4
v 0.1 2.9 -0.5
v 0.3 2.9 -0.5
v 0.4 2.9 -0.5
v 0.6 2.9 -0.5
v 0.3 2.9 -0.6
v 0.4 2.9 -0.6
v 0.6 2.9 -0.6
v 0.3 3 -0.1
v 0.4 3 -0.1
v 0.6 3 -0.1
v 0.2 3 -0.2
v 0.3 3 -0.2
v 0.2 3 -0.4
v 0.3 3 -0.4
v 0.3 3 -0.5
v 0.4 3 -0.5
v 0.6 3 -0.5

# faces
f 4/2/1 2/2/1 1/2/1
f 5/2/1 2/2/1 4/2/1
f 7/2/1 4/2/1 3/2/1
f 7/2/1 6/2/1 5/2/1
f 7/2/1 5/2/1 4/2/1
f 8/2/1 6/2/1 7/2/1
f 9/2/1 6/2/1 8/2/1
f 10/2/1 6/2/1 9/2/1
f 11/2/1 9/2/1 8/2/1
f 12/2/1 9/2/1 11/2/1
f 17/2/1 14/2/1 13/2/1
f 18/2/1 14/2/1 17/2/1
f 19/2/1 16/2/1 15/2/1
f 20/2/1 16/2/1 19/2/1
f 25/2/1 22/2/1 21/2/1
f 26/2/1 22/2/1 25/2/1
f 27/2/1 24/2/1 23/2/1
f 28/2/1 24/2/1 27/2/1
f 33/2/1 30/2/1 29/2/1
f 34/2/1 30/2/1 33/2/1
f 35/2/1 32/2/1 31/2/1
f 36/2/1 32/2/1 35/2/1
f 41/2/1 38/2/1 37/2/1
f 42/2/1 38/2/1 41/2/1
f 43/2/1 40/2/1 39/2/1
f 44/2/1 40/2/1 43/2/1
f 49/2/1 46/2/1 45/2/1
f 50/2/1 46/2/1 49/2/1
f 51/2/1 48/2/1 47/2/1
f 52/2/1 48/2/1 51/2/1
f 55/2/1 54/2/1 53/2/1
f 56/2/1 54/2/1 55/2/1
f 62/5/1 58/5/1 57/5/1
f 63/5/1 58/5/1 62/5/1
f 64/5/1 60/5/1 59/5/1
f 65/5/1 60/5/1 64/5/1
f 67/2/1 62/2/1 61/2/1
f 68/2/1 62/2/1 67/2/1
f 69/2/1 66/2/1 65/2/1
f 70/2/1 66/2/1 69/2/1
f 75/2/1 72/2/1 71/2/1
f 76/2/1 72/2/1 75/2/1
f 79/2/1 74/2/1 73/2/1
f 80/2/1 74/2/1 79/2/1
f 81/2/1 77/2/1 76/2/1
f 82/2/1 77/2/1 81/2/1
f 83/2/1 79/2/1 78/2/1
f 84/2/1 79/2/1 83/2/1
f 87/2/1 86/2/1 85/2/1
f 88/2/1 86/2/1 87/2/1
f 89/2/2 90/2/2 91/2/2
f 91/2/2 90/2/2 92/2/2
f 93/1/2 94/1/2 97/1/2
f 97/1/2 94/1/2 98/1/2
f 95/1/2 96/1/2 99/1/2
f 99/1/2 96/1/2 100/1/2
f 101/5/2 102/5/2 106/5/2
f 106/5/2 102/5/2 107/5/2
f 103/5/2 104/5/2 108/5/2
f 108/5/2 104/5/2 109/5/2
f 105/2/2 106/2/2 111/2/2
f 109/2/2 110/2/2 112/2/2
f 105/2/2 111/2/2 113/2/2
f 113/2/2 111/2/2 114/2/2
f 112/2/2 110/2/2 115/2/2
f 115/2/2 110/2/2 116/2/2
f 114/7/2 115/7/2 117/7/2
f 117/7/2 115/7/2 118/7/2
f 118/7/2 115/7/2 119/7/2
f 119/7/2 115/7/2 120/7/2
f 118/7/2 119/7/2 122/7/2
f 122/7/2 119/7/2 123/7/2
f 121/7/2 122/7/2 125/7/2
f 123/7/2 124/7/2 125/7/2
f 122/7/2 123/7/2 125/7/2
f 125/7/2 124/7/2 126/7/2
f 127/2/2 128/2/2 129/2/2
f 129/2/2 128/2/2 130/2/2
f 129/3/2 130/3/2 132/3/2
f 132/3/2 130/3/2 133/3/2
f 131/3/2 132/3/2 135/3/2
f 135/3/2 132/3/2 136/3/2
f 133/3/2 134/3/2 137/3/2
f 137/3/2 134/3/2 138/3/2
f 136/3/2 137/3/2 139/3/2
f 139/3/2 137/3/2 140/3/2
f 144/2/3 142/2/3 141/2/3
f 145/2/3 142/2/3 144/2/3
f 148/2/3 144/2/3 143/2/3
f 148/2/3 146/2/3 145/2/3
f 148/2/3 145/2/3 144/2/3
f 149/2/3 146/2/3 148/2/3
f 151/2/3 148/2/3 147/2/3
f 151/2/3 150/2/3 149/2/3
f 151/2/3 149/2/3 148/2/3
f 152/2/3 150/2/3 151/2/3
f 153/2/3 151/2/3 147/2/3
f 154/2/3 151/2/3 153/2/3
f 155/3/3 152/3/3 151/3/3
f 155/2/3 151/2/3 154/2/3
f 156/3/3 155/3/3 154/3/3
f 157/3/3 152/3/3 155/3/3
f 157/3/3 155/3/3 156/3/3
f 161/2/3 159/2/3 158/2/3
f 162/2/3 159/2/3 161/2/3
f 163/2/3 159/2/3 162/2/3
f 164/2/3 159/2/3 163/2/3
f 166/2/3 161/2/3 160/2/3
f 166/2/3 162/2/3 161/2/3
f 167/2/3 162/2/3 166/2/3
f 168/2/3 165/2/3 164/2/3
f 168/2/3 164/2/3 163/2/3
f 169/2/3 165/2/3 168/2/3
f 171/2/3 166/2/3 160/2/3
f 172/2/3 166/2/3 171/2/3
f 173/2/3 165/2/3 169/2/3
f 174/2/3 165/2/3 173/2/3
f 176/2/3 175/2/3 174/2/3
f 177/2/3 175/2/3 176/2/3
f 178/5/3 171/5/3 170/5/3
f 179/5/3 171/5/3 178/5/3
f 182/2/3 180/2/3 179/2/3
f 183/3/3 181/3/3 180/3/3
f 183/2/3 180/2/3 182/2/3
f 184/3/3 181/3/3 183/3/3
f 185/3/3 177/3/3 176/3/3
f 186/3/3 177/3/3 185/3/3
f 191/2/3 188/2/3 187/2/3
f 192/2/3 188/2/3 191/2/3
f 193/2/3 190/2/3 189/2/3
f 194/2/3 190/2/3 193/2/3
f 197/2/3 196/2/3 195/2/3
f 198/2/3 196/2/3 197/2/3
f 201/7/3 200/7/3 199/7/3
f 202/7/3 200/7/3 201/7/3
f 206/5/3 204/5/3 203/5/3
f 207/2/3 205/2/3 204/2/3
f 207/5/3 204/5/3 206/5/3
f 208/2/3 205/2/3 207/2/3
f 212/3/3 210/3/3 209/3/3
f 213/3/3 210/3/3 212/3/3
f 215/3/3 212/3/3 211/3/3
f 215/3/3 214/3/3 213/3/3
f 215/3/3 213/3/3 212/3/3
f 216/3/3 214/3/3 215/3/3
f 217/3/4 218/3/4 220/3/4
f 220/3/4 218/3/4 221/3/4
f 219/3/4 220/3/4 223/3/4
f 221/3/4 222/3/4 223/3/4
f 220/3/4 221/3/4 223/3/4
f 223/3/4 222/3/4 224/3/4
f 225/5/4 226/5/4 228/5/4
f 226/2/4 227/2/4 229/2/4
f 228/5/4 226/5/4 229/5/4
f 229/2/4 227/2/4 230/2/4
f 231/2/4 232/2/4 235/2/4
f 235/2/4 232/2/4 236/2/4
f 233/2/4 234/2/4 237/2/4
f 237/2/4 234/2/4 238/2/4
f 239/2/4 240/2/4 241/2/4
f 241/2/4 240/2/4 242/2/4
f 243/7/4 244/7/4 245/7/4
f 245/7/4 244/7/4 246/7/4
f 247/2/4 248/2/4 250/2/4
f 250/2/4 248/2/4 251/2/4
f 251/2/4 248/2/4 252/2/4
f 252/2/4 248/2/4 253/2/4
f 249/2/4 250/2/4 255/2/4
f 250/2/4 251/2/4 255/2/4
f 255/2/4 251/2/4 256/2/4
f 253/2/4 254/2/4 257/2/4
f 252/2/4 253/2/4 257/2/4
f 257/2/4 254/2/4 258/2/4
f 249/2/4 255/2/4 260/2/4
f 260/2/4 255/2/4 261/2/4
f 258/2/4 254/2/4 262/2/4
f 262/2/4 254/2/4 263/2/4
f 263/2/4 264/2/4 265/2/4
f 265/2/4 264/2/4 266/2/4
f 259/5/4 260/5/4 267/5/4
f 267/5/4 260/5/4 268/5/4
f 268/2/4 269/2/4 271/2/4
f 269/3/4 270/3/4 272/3/4
f 271/2/4 269/2/4 272/2/4
f 272/3/4 270/3/4 273/3/4
f 265/3/4 266/3/4 274/3/4
f 274/3/4 266/3/4 275/3/4
f 276/2/4 277/2/4 279/2/4
f 279/2/4 277/2/4 280/2/4
f 278/2/4 279/2/4 283/2/4
f 280/2/4 281/2/4 283/2/4
f 279/2/4 280/2/4 283/2/4
f 283/2/4 281/2/4 284/2/4
f 282/2/4 283/2/4 286/2/4
f 284/2/4 285/2/4 286/2/4
f 283/2/4 284/2/4 286/2/4
f 286/2/4 285/2/4 287/2/4
f 282/2/4 286/2/4 288/2/4
f 288/2/4 286/2/4 289/2/4
f 286/3/4 287/3/4 290/3/4
f 289/2/4 286/2/4 290/2/4
f 289/3/4 290/3/4 291/3/4
f 290/3/4 287/3/4 292/3/4
f 291/3/4 290/3/4 292/3/4
f 295/5/5 294/5/5 293/5/5
f 296/5/5 294/5/5 295/5/5
f 299/5/5 298/5/5 297/5/5
f 300/5/5 298/5/5 299/5/5
f 304/2/5 302/2/5 301/2/5
f 305/2/5 302/2/5 304/2/5
f 308/2/5 304/2/5 303/2/5
f 309/2/5 304/2/5 308/2/5
f 310/2/5 306/2/5 305/2/5
f 311/2/5 309/2/5 308/2/5
f 311/2/5 308/2/5 307/2/5
f 312/2/5 309/2/5 311/2/5
f 313/2/5 309/2/5 312/2/5
f 314/2/5 306/2/5 310/2/5
f 315/2/5 313/2/5 312/2/5
f 316/2/5 313/2/5 315/2/5
f 317/2/5 306/2/5 314/2/5
f 318/2/5 306/2/5 317/2/5
f 319/2/5 317/2/5 316/2/5
f 320/2/5 317/2/5 319/2/5
f 325/2/5 322/2/5 321/2/5
f 326/2/5 322/2/5 325/2/5
f 327/2/5 324/2/5 323/2/5
f 328/2/5 324/2/5 327/2/5
f 333/2/5 330/2/5 329/2/5
f 334/2/5 330/2/5 333/2/5
f 335/2/5 332/2/5 331/2/5
f 336/2/5 332/2/5 335/2/5
f 339/2/5 338/2/5 337/2/5
f 340/2/5 338/2/5 339/2/5
f 343/2/5 342/2/5 341/2/5
f 344/2/5 342/2/5 343/2/5
f 347/2/5 346/2/5 345/2/5
f 348/2/5 346/2/5 347/2/5
f 351/3/5 350/3/5 349/3/5
f 352/3/5 350/3/5 351/3/5
f 355/3/5 354/3/5 353/3/5
f 356/3/5 354/3/5 355/3/5
f 359/7/5 358/7/5 357/7/5
f 360/7/5 358/7/5 359/7/5
f 363/7/5 362/7/5 361/7/5
f 364/7/5 362/7/5 363/7/5
f 367/3/5 366/3/5 365/3/5
f 368/3/5 366/3/5 367/3/5
f 369/3/6 370/3/6 371/3/6
f 371/3/6 370/3/6 372/3/6
f 373/2/6 374/2/6 375/2/6
f 375/2/6 374/2/6 376/2/6
f 377/7/6 378/7/6 379/7/6
f 379/7/6 378/7/6 380/7/6
f 381/7/6 382/7/6 385/7/6
f 385/7/6 382/7/6 386/7/6
f 383/2/6 384/2/6 387/2/6
f 387/2/6 384/2/6 388/2/6
f 389/2/6 390/2/6 393/2/6
f 393/2/6 390/2/6 394/2/6
f 391/2/6 392/2/6 395/2/6
f 395/2/6 392/2/6 396/2/6
f 397/2/6 398/2/6 399/2/6
f 399/2/6 398/2/6 400/2/6
f 401/2/6 402/2/6 403/2/6
f 403/2/6 402/2/6 404/2/6
f 405/2/6 406/2/6 409/2/6
f 406/3/6 407/3/6 410/3/6
f 409/2/6 406/2/6 410/2/6
f 410/3/6 407/3/6 411/3/6
f 408/2/6 409/2/6 413/2/6
f 413/2/6 409/2/6 414/2/6
f 414/2/6 409/2/6 415/2/6
f 412/2/6 413/2/6 416/2/6
f 413/2/6 414/2/6 416/2/6
f 416/2/6 414/2/6 417/2/6
f 417/2/6 414/2/6 418/2/6
f 418/2/6 419/2/6 420/2/6
f 417/2/6 418/2/6 420/2/6
f 420/2/6 419/2/6 421/2/6
f 421/2/6 422/2/6 424/2/6
f 422/3/6 423/3/6 425/3/6
f 424/2/6 422/2/6 425/2/6
f 425/3/6 423/3/6 426/3/6
f 427/2/6 428/2/6 431/2/6
f 430/2/6 431/2/6 432/2/6
f 431/2/6 428/2/6 433/2/6
f 432/2/6 431/2/6 433/2/6
f 433/2/6 428/2/6 434/2/6
f 428/3/6 429/3/6 435/3/6
f 434/2/6 428/2/6 435/2/6
f 435/3/6 429/3/6 436/3/6
